<svg width="44" height="58" viewBox="0 0 44 58" fill="none" xmlns="http://www.w3.org/2000/svg">
<g filter="url(#filter0_d_9_58)">
<path d="M21.701 50C18.363 50 15.3305 49.3418 12.6037 48.0254C9.92384 46.709 7.80818 44.8989 6.2567 42.5952C4.75223 40.2445 4 37.6352 4 34.7673C4 33.2628 4.58768 32.158 5.76305 31.4528C6.98543 30.7475 8.63094 30.3949 10.6996 30.3949C10.5585 31.2412 10.488 32.1345 10.488 33.0748C10.488 36.5538 11.4753 39.2572 13.4499 41.1848C15.4245 43.1124 18.1749 44.0762 21.701 44.0762C25.2741 44.0762 28.048 43.0889 30.0226 41.1142C31.9972 39.0926 32.9845 36.2953 32.9845 32.7221V5.85331H24.4513C21.0663 5.85331 19.3738 3.90221 19.3738 0H36.4401C37.3333 0 38.0856 0.305595 38.6968 0.916785C39.3079 1.48096 39.6135 2.20969 39.6135 3.10296V32.7221C39.6135 36.0132 38.8378 38.9751 37.2863 41.6079C35.7819 44.2407 33.6662 46.3094 30.9394 47.8138C28.2125 49.2713 25.1331 50 21.701 50Z" fill="white"/>
<path d="M15.2522 38.8026L4.79105 9.81636V9.16253H10.0216L19.3931 36.2963H18.031L27.6749 9.16253H32.6876V9.81636L21.7905 38.8026H15.2522Z" fill="white"/>
</g>
<defs>
<filter id="filter0_d_9_58" x="0" y="0" width="43.6135" height="58" filterUnits="userSpaceOnUse" color-interpolation-filters="sRGB">
<feFlood flood-opacity="0" result="BackgroundImageFix"/>
<feColorMatrix in="SourceAlpha" type="matrix" values="0 0 0 0 0 0 0 0 0 0 0 0 0 0 0 0 0 0 127 0" result="hardAlpha"/>
<feOffset dy="4"/>
<feGaussianBlur stdDeviation="2"/>
<feComposite in2="hardAlpha" operator="out"/>
<feColorMatrix type="matrix" values="0 0 0 0 0 0 0 0 0 0 0 0 0 0 0 0 0 0 0.25 0"/>
<feBlend mode="normal" in2="BackgroundImageFix" result="effect1_dropShadow_9_58"/>
<feBlend mode="normal" in="SourceGraphic" in2="effect1_dropShadow_9_58" result="shape"/>
</filter>
</defs>
</svg>
